<svg id="Group_132" data-name="Group 132" xmlns="http://www.w3.org/2000/svg" width="49.268" height="49.268" viewBox="0 0 49.268 49.268">
  <g id="Group_45" data-name="Group 45" transform="translate(0 0)">
    <path id="Path_21" data-name="Path 21" d="M441.515,754H401.2a4.479,4.479,0,0,0-4.479,4.479v40.31a4.48,4.48,0,0,0,4.479,4.479h22.208V782.74h-6.158v-6.159h6.158v-3.607c0-6.832,3.455-9.829,9.349-9.829a35.722,35.722,0,0,1,5.021.292v6.986h-4.212c-2.41-.747-1.946,3.1-1.946,3.1v3.057H438.1l-.879,6.159h-5.6v20.529h9.893a4.478,4.478,0,0,0,4.477-4.479v-40.31A4.478,4.478,0,0,0,441.515,754Z" transform="translate(-396.724 -754)" fill="#562085"/>
  </g>
</svg>
