<svg id="Group_133" data-name="Group 133" xmlns="http://www.w3.org/2000/svg" xmlns:xlink="http://www.w3.org/1999/xlink" width="52.454" height="52.457" viewBox="0 0 52.454 52.457">
  <defs>
    <clipPath id="clip-path">
      <path id="Path_117" data-name="Path 117" d="M461.787,470.628a8.742,8.742,0,1,1,8.741,8.743,8.742,8.742,0,0,1-8.741-8.743m-4.727,0a13.468,13.468,0,1,0,13.468-13.468,13.468,13.468,0,0,0-13.468,13.468m24.322-14a3.148,3.148,0,1,0,3.148-3.146,3.149,3.149,0,0,0-3.148,3.146m-21.451,35.351a14.489,14.489,0,0,1-4.871-.9,8.684,8.684,0,0,1-4.979-4.977,14.486,14.486,0,0,1-.9-4.871c-.127-2.765-.153-3.6-.153-10.6s.028-7.832.153-10.6a14.553,14.553,0,0,1,.9-4.871,8.679,8.679,0,0,1,4.979-4.979,14.488,14.488,0,0,1,4.871-.9c2.765-.127,3.6-.153,10.6-.153s7.832.028,10.6.153a14.557,14.557,0,0,1,4.871.9,8.679,8.679,0,0,1,4.979,4.979,14.489,14.489,0,0,1,.9,4.871c.127,2.767.153,3.6.153,10.6s-.025,7.832-.153,10.6a14.545,14.545,0,0,1-.9,4.871A8.684,8.684,0,0,1,486,491.075a14.488,14.488,0,0,1-4.871.9c-2.765.127-3.6.153-10.6.153s-7.833-.025-10.6-.153m-.216-47.419a19.237,19.237,0,0,0-6.366,1.218,13.411,13.411,0,0,0-7.671,7.671,19.239,19.239,0,0,0-1.218,6.366c-.129,2.8-.159,3.691-.159,10.813s.03,8.017.159,10.813a19.238,19.238,0,0,0,1.218,6.366,13.411,13.411,0,0,0,7.671,7.671,19.249,19.249,0,0,0,6.366,1.218c2.8.127,3.691.159,10.813.159s8.017-.03,10.813-.159a19.237,19.237,0,0,0,6.366-1.218,13.41,13.41,0,0,0,7.671-7.671,19.184,19.184,0,0,0,1.218-6.366c.127-2.8.157-3.691.157-10.813s-.03-8.017-.157-10.813a19.236,19.236,0,0,0-1.218-6.366,13.415,13.415,0,0,0-7.669-7.671,19.206,19.206,0,0,0-6.366-1.218c-2.8-.127-3.691-.159-10.813-.159s-8.017.03-10.815.159" transform="translate(-444.3 -444.4)" fill="#fff"/>
    </clipPath>
    <clipPath id="clip-path-2">
      <path id="Path_115" data-name="Path 115" d="M-5520.6-5520.5h305.351v305.2H-5520.6Z" transform="translate(5520.6 5520.5)" fill="#562085"/>
    </clipPath>
  </defs>
  <g id="Mask_Group_3" data-name="Mask Group 3" transform="translate(0 0)" clip-path="url(#clip-path)">
    <g id="Group_97" data-name="Group 97" transform="translate(-126.448 -126.373)" clip-path="url(#clip-path-2)">
      <g id="Group_90" data-name="Group 90" clip-path="url(#clip-path-2)">
        <path id="Path_107" data-name="Path 107" d="M-5520.6-5520.5h305.2v305.2h-305.2Z" transform="translate(5520.6 5520.5)" fill="#562085"/>
      </g>
    </g>
    <path id="Path_116" data-name="Path 116" d="M18.076,71.032A24,24,0,0,1,10,69.537a13.508,13.508,0,0,1-5-3.252,13.431,13.431,0,0,1-3.252-5,24,24,0,0,1-1.5-8.074C.042,48.63,0,47.255,0,35.645s.047-12.983.252-17.57A24.135,24.135,0,0,1,1.748,10,13.56,13.56,0,0,1,5,5a13.422,13.422,0,0,1,5-3.252,24,24,0,0,1,8.074-1.5C22.658.042,24.036,0,35.641,0s12.983.047,17.57.252a24.135,24.135,0,0,1,8.074,1.5,13.456,13.456,0,0,1,5,3.252,13.491,13.491,0,0,1,3.252,5,24,24,0,0,1,1.5,8.074c.21,4.587.252,5.96.252,17.57s-.042,12.983-.252,17.57a24.11,24.11,0,0,1-1.5,8.074,14.4,14.4,0,0,1-8.252,8.25,24,24,0,0,1-8.074,1.5c-4.583.21-5.96.252-17.57.252s-12.983-.04-17.565-.252" transform="translate(-9.488 -9.415)" fill="#562085"/>
  </g>
</svg>
