<svg xmlns="http://www.w3.org/2000/svg" width="49.268" height="40.037" viewBox="0 0 49.268 40.037">
  <g id="Group_131" data-name="Group 131" transform="translate(0)">
    <g id="Group_43" data-name="Group 43" transform="translate(0 0)">
      <path id="Path_20" data-name="Path 20" d="M417.028,758.741a20.2,20.2,0,0,1-5.805,1.591,10.122,10.122,0,0,0,4.442-5.592,20.254,20.254,0,0,1-6.419,2.453,10.136,10.136,0,0,0-9.568-2.962,9.977,9.977,0,0,0-7.164,5.982,10.431,10.431,0,0,0-.491,6.2,28.69,28.69,0,0,1-20.832-10.562,10.125,10.125,0,0,0,3.126,13.5,10.1,10.1,0,0,1-4.578-1.265v.127a10.112,10.112,0,0,0,8.109,9.911,10.159,10.159,0,0,1-4.564.172,10.116,10.116,0,0,0,9.441,7.021A20.352,20.352,0,0,1,367.76,789.5a28.6,28.6,0,0,0,15.495,4.541c18.591,0,28.756-15.4,28.756-28.758,0-.437-.01-.875-.029-1.308A20.581,20.581,0,0,0,417.028,758.741Z" transform="translate(-367.76 -754)" fill="#562085"/>
    </g>
  </g>
</svg>
