<svg id="Group_130" data-name="Group 130" xmlns="http://www.w3.org/2000/svg" width="49.268" height="36.578" viewBox="0 0 49.268 36.578">
  <g id="Group_41" data-name="Group 41" transform="translate(0 0)">
    <path id="Path_19" data-name="Path 19" d="M383.617,760.288a6.487,6.487,0,0,0-5.142-4.916A101.569,101.569,0,0,0,360.186,754a103.075,103.075,0,0,0-18.4,1.371,6.341,6.341,0,0,0-5.144,4.916,74.974,74.974,0,0,0-.916,12,62.093,62.093,0,0,0,1.028,12,6.509,6.509,0,0,0,5.142,4.917,124.391,124.391,0,0,0,36.812,0,6.354,6.354,0,0,0,5.144-4.917,87.829,87.829,0,0,0,1.141-12A79.754,79.754,0,0,0,383.617,760.288Zm-29.417,20v-16l13.945,8Z" transform="translate(-335.724 -754)" fill="#562085"/>
  </g>
</svg>
